<?xml version="1.0" standalone="no"?>
<!DOCTYPE svg PUBLIC "-//W3C//DTD SVG 20010904//EN"
 "http://www.w3.org/TR/2001/REC-SVG-20010904/DTD/svg10.dtd">
<svg version="1.0" xmlns="http://www.w3.org/2000/svg"
 width="200.000000pt" height="200.000000pt" viewBox="0 0 200.000000 200.000000"
 preserveAspectRatio="xMidYMid meet">

<g transform="translate(0.000000,200.000000) scale(0.100000,-0.100000)"
fill="#000000" stroke="none">
<path d="M327 1479 c-9 -6 -15 -14 -12 -19 3 -5 0 -12 -6 -16 -8 -5 -9 -3 -4
6 5 8 3 11 -6 8 -8 -3 -13 -11 -12 -17 2 -6 -2 -10 -8 -8 -7 1 -26 -18 -43
-41 -28 -40 -31 -51 -31 -120 0 -75 2 -80 53 -170 28 -50 52 -96 52 -102 0 -5
-20 -44 -45 -86 -25 -42 -43 -80 -40 -84 3 -5 1 -11 -4 -15 -13 -7 -13 -119 0
-167 11 -43 83 -123 100 -112 7 4 9 3 6 -2 -3 -6 3 -16 15 -23 11 -7 18 -9 15
-4 -3 5 3 9 13 9 12 0 16 -4 10 -11 -6 -7 12 -22 53 -45 34 -19 86 -49 115
-67 29 -19 58 -31 65 -27 6 4 9 3 5 -1 -5 -5 4 -16 20 -25 19 -12 29 -14 34
-6 5 7 8 5 8 -5 0 -8 23 -27 50 -42 28 -15 50 -25 50 -22 0 3 8 -3 18 -12 10
-10 35 -27 57 -38 22 -11 46 -26 54 -33 7 -7 19 -11 27 -8 7 3 18 -2 24 -9 32
-39 149 -25 219 27 36 26 141 180 141 207 0 8 -46 12 -143 13 -51 1 -52 14 -2
21 23 3 20 4 -14 6 -34 1 -42 4 -37 16 7 19 -28 38 -57 31 -22 -6 -22 -6 1 6
19 9 27 8 52 -11 26 -18 31 -19 36 -7 8 21 -25 54 -36 37 -5 -9 -8 -4 -7 12 0
16 4 24 12 21 7 -3 15 2 18 11 5 12 1 14 -20 9 -20 -6 -24 -4 -18 7 5 8 4 11
-1 6 -5 -5 -9 -14 -9 -20 0 -5 -6 -12 -14 -15 -8 -3 -11 0 -7 6 4 7 -16 0 -44
-15 -27 -14 -50 -30 -50 -34 0 -5 -6 -8 -12 -6 -7 1 -12 -4 -10 -11 1 -8 -2
-11 -8 -7 -5 3 -35 -8 -66 -25 -75 -42 -146 -50 -201 -22 -22 12 -43 19 -47
17 -3 -3 -4 -2 -1 1 2 4 -8 22 -23 42 l-27 35 0 466 c0 263 4 474 9 485 23 48
-18 -2 -65 -80 -29 -46 -57 -84 -64 -84 -6 0 -17 12 -23 26 -7 14 -17 22 -22
19 -6 -4 -7 -11 -4 -17 5 -7 2 -8 -5 -4 -7 5 -10 14 -7 22 7 19 -11 67 -23 60
-5 -3 -12 1 -15 10 -9 24 -8 27 10 20 14 -5 15 -4 4 9 -8 9 -21 13 -34 10 -16
-5 -18 -4 -6 4 20 14 9 22 -13 10z m746 -953 c4 -10 0 -12 -15 -8 -15 4 -17 7
-6 13 17 11 15 11 21 -5z m62 -315 c3 -5 2 -12 -3 -15 -5 -3 -9 1 -9 9 0 17 3
19 12 6z"/>
<path d="M1173 607 c1 -6 -9 -14 -23 -18 -25 -7 -25 -7 -2 -8 13 -1 20 -5 17
-11 -9 -14 11 -12 22 3 14 17 12 44 -3 44 -7 0 -12 -5 -11 -10z m17 -17 c0 -5
-5 -10 -11 -10 -5 0 -7 5 -4 10 3 6 8 10 11 10 2 0 4 -4 4 -10z"/>
</g>
</svg>
